<svg xmlns="http://www.w3.org/2000/svg" viewBox="0 0 24 24" width="24" height="24"><ellipse fill="#FFFFFF" cx="12" cy="13.219" rx="9.5" ry="4.625"/><ellipse fill="#FFFFFF" cx="12" cy="13.219" rx="8.21" ry="9.813"/><path d="M10.494,0.029C10.363,0.048,9.903,0.114,9.461,0.17c-2.774,0.376-4.684,1.617-5.68,3.686 C3.528,4.373,3.293,5.041,3.198,5.52C3.02,6.366,2.964,8.181,3.095,8.886L3.16,9.29L2.889,9.14C2.447,8.914,1.91,8.961,1.563,9.244 c-0.611,0.526-0.677,0.949-0.376,2.482C1.601,13.785,2.24,15.299,3.02,16.1c0.254,0.263,0.602,0.545,0.762,0.61 c0.254,0.113,0.32,0.207,0.414,0.63c0.603,2.728,3.15,5.342,6.206,6.385c1.523,0.517,2.915,0.319,4.776-0.696 c2.352-1.298,4.137-3.479,4.627-5.688c0.094-0.423,0.16-0.517,0.414-0.63c0.16-0.065,0.508-0.348,0.762-0.61 c0.781-0.799,1.42-2.313,1.832-4.374c0.301-1.533,0.236-1.956-0.375-2.482c-0.348-0.282-0.885-0.329-1.326-0.104l-0.273,0.15 l0.066-0.404c0.131-0.706,0.074-2.52-0.104-3.366c-0.227-1.128-0.855-2.379-1.57-3.141c-1.072-1.146-2.416-1.813-4.438-2.181 C14.058,0.057,11.003-0.056,10.494,0.029z M9.243,6.197c0.509,0.169,0.743,0.311,1.214,0.781c0.602,0.592,1.128,1.523,1.372,2.417 c0.058,0.254,0.142,0.451,0.17,0.451c0.027,0,0.112-0.197,0.169-0.451c0.244-0.894,0.771-1.824,1.382-2.426 c0.488-0.479,0.686-0.602,1.25-0.79c1.213-0.386,2.379-0.15,3,0.611c0.609,0.743,0.996,1.927,1.1,3.385 c0.121,1.683,0.15,1.833,0.338,1.833c0.16,0,1.053-0.263,1.43-0.423c0.141-0.056,0.131,0.028-0.066,0.79 c-0.291,1.081-0.688,1.956-1.063,2.322c-0.234,0.234-0.395,0.311-0.855,0.357l-0.564,0.065l-0.057,0.536 c-0.094,0.818-0.387,1.918-0.641,2.426c-0.893,1.758-2.896,3.355-4.842,3.846c-0.536,0.141-0.63,0.141-1.175,0 c-1.937-0.49-3.939-2.088-4.833-3.846c-0.254-0.508-0.545-1.607-0.64-2.426L5.876,15.12l-0.564-0.065 c-0.46-0.047-0.621-0.123-0.854-0.357c-0.377-0.367-0.771-1.241-1.063-2.322c-0.198-0.762-0.207-0.846-0.066-0.79 c0.376,0.16,1.27,0.423,1.43,0.423c0.188,0,0.169,0.113,0.367-2.021c0.056-0.574,0.188-1.335,0.29-1.692 c0.217-0.706,0.743-1.57,1.139-1.853C7.203,5.952,8.229,5.868,9.243,6.197z"/><path d="M5.982,12.139c0,0.339,0.611,1.298,1.166,1.833c1.119,1.063,2.003,1.278,2.953,0.705c0.489-0.301,0.893-0.949,0.846-1.354 c-0.027-0.227-0.104-0.254-2.237-0.715c-1.214-0.272-2.323-0.517-2.464-0.545C6.067,12.027,5.982,12.055,5.982,12.139z"/><path d="M15.431,12.553c-2.266,0.519-2.352,0.545-2.379,0.771c-0.047,0.404,0.461,1.072,1.033,1.354 c1.27,0.621,2.332,0.312,3.17-0.912c0.402-0.602,0.809-1.776,0.602-1.749C17.81,12.017,16.728,12.261,15.431,12.553z"/><path d="M8.05,17.057c0,0.037,1.269,0.855,1.683,1.082l0.292,0.16v0.827l0.009,0.827l0.319-0.376 c0.179-0.207,0.395-0.508,0.479-0.658l0.149-0.282h1.016h1.016l0.15,0.282c0.084,0.15,0.301,0.451,0.479,0.658l0.32,0.376 l0.01-0.827v-0.827l0.291-0.16c0.414-0.227,1.684-1.045,1.684-1.082c0-0.019-0.264,0-0.584,0.047 c-1.063,0.15-3.337,0.217-4.757,0.15c-0.761-0.037-1.645-0.104-1.965-0.15C8.314,17.057,8.05,17.038,8.05,17.057z"/></svg>
